<svg width="1440" height="1024" viewBox="0 0 1440 1024" fill="none" xmlns="http://www.w3.org/2000/svg">
<g filter="url(#filter0_f_1_25)">
<g clip-path="url(#clip0_1_25)">
<path d="M1798 -27H-358V1051H1798V-27Z" fill="#5D12D2"/>
<path d="M296.885 924.066C149.603 894.69 -4.14648 880.676 -154.932 897.924C-223.924 905.605 -291.972 920.293 -358 942.931V1051H779.021C622.845 1006.26 468.018 959.235 310.63 926.761C306.048 925.817 301.467 925.009 296.885 924.066Z" fill="#6E10E3"/>
<path d="M1798 -27H-358V942.93C-291.973 920.292 -223.924 905.47 -154.932 897.789C-4.14651 880.676 149.603 894.555 296.885 923.931C301.466 924.874 306.048 925.817 310.629 926.626C468.018 958.966 622.845 1006.13 779.02 1050.87H1798V-27Z" fill="#8110F2"/>
<path d="M286.644 755.897C290.956 756.975 295.268 758.188 299.445 759.266C563.825 830.01 823.218 939.157 1099.19 997.235C1333.92 1046.55 1570.14 1036.58 1798 983.49V-27H-358V747.678C-287.526 723.962 -214.491 710.352 -140.918 706.04C3.669 697.146 148.256 719.784 286.644 755.897Z" fill="#951AF5"/>
<path d="M-358 -27V551.617C-283.079 526.823 -205.059 514.83 -127.039 514.291C11.4845 513.213 146.774 544.879 276.268 587.73C280.311 589.077 284.218 590.425 288.261 591.772C535.662 675.317 781.042 788.642 1046.09 850.627C1297.67 909.513 1553.16 896.981 1797.87 833.648V-27H-358Z" fill="#A725F9"/>
<path d="M-113.025 322.542C19.3 330.627 145.561 369.974 266.027 419.696C269.8 421.179 273.438 422.796 277.211 424.278C507.634 520.759 739 637.857 993.138 704.154C1261.02 773.954 1536.72 759.132 1798 684.211V-27H-358V354.612C-278.498 328.201 -195.492 317.556 -113.025 322.542Z" fill="#B931FC"/>
<path d="M1798 -27H-358V156.664C-274.051 128.502 -185.924 119.608 -99.0105 130.792C27.1155 147.097 144.213 195.068 255.786 251.528C259.29 253.28 262.659 255.032 266.162 256.784C479.606 366.066 696.958 487.071 940.316 557.546C1223.97 639.743 1520.82 623.573 1798.13 535.177V-27H1798Z" fill="#DA3CFD"/>
<path d="M254.978 89.2893C451.443 211.507 654.781 335.882 887.225 410.937C1168.31 501.759 1468.4 492.866 1746.8 403.796C1764.04 398.271 1781.02 392.477 1798.13 386.413V-27H30.2148C105.675 1.70175 176.688 41.1835 245.411 83.495C248.645 85.3815 251.744 87.4028 254.978 89.2893Z" fill="#F748FD"/>
<path d="M1798 -27H313.055C472.195 88.6155 641.171 194.664 834.268 264.329C1092.72 357.576 1373.27 364.988 1636.03 292.762C1691.01 277.67 1745.31 258.805 1798.13 236.571V-27H1798Z" fill="#FE53EB"/>
<path d="M1525.13 181.593C1588.73 167.309 1651.26 147.501 1711.89 122.572C1741.14 110.58 1769.84 97.2395 1798 82.8212V-27H508.982C593.739 29.1907 683.752 78.3745 781.311 117.721C1016.99 212.99 1278.13 237.245 1525.13 181.593Z" fill="#FF5ED5"/>
<path d="M1414.37 70.559C1515.83 53.5805 1615.01 20.5667 1706.5 -27H732.262C944.763 68.6725 1184.48 109.097 1414.37 70.559Z" fill="#FF6AC2"/>
</g>
</g>
<defs>
<filter id="filter0_f_1_25" x="-403" y="-72" width="2246" height="1168" filterUnits="userSpaceOnUse" color-interpolation-filters="sRGB">
<feFlood flood-opacity="0" result="BackgroundImageFix"/>
<feBlend mode="normal" in="SourceGraphic" in2="BackgroundImageFix" result="shape"/>
<feGaussianBlur stdDeviation="22.5" result="effect1_foregroundBlur_1_25"/>
</filter>
<clipPath id="clip0_1_25">
<rect width="2156" height="1078" fill="white" transform="translate(-358 -27)"/>
</clipPath>
</defs>
</svg>
