<svg width="101" height="121" viewBox="0 0 101 121" fill="none" xmlns="http://www.w3.org/2000/svg">
<path d="M99.175 101.846C100.019 103.585 100.265 105.553 99.875 107.446C99.154 111.329 97.37 117.263 92.984 118.317C90.276 118.966 87.066 118.228 84.326 118.042C80.215 117.75 76.105 117.458 71.987 117.272C63.3105 116.839 54.6151 116.967 45.955 117.653C37.904 118.342 29.878 119.266 21.804 119.461C20.8075 119.955 19.6798 120.12 18.5834 119.932C17.4871 119.744 16.4788 119.213 15.704 118.415C9.93996 112.748 9.21896 101.909 9.03196 94.337C8.74796 83.399 10.151 72.474 12.161 61.732C14.2733 50.1227 15.1997 38.3287 14.926 26.532C12.713 26.094 10.589 26.864 8.39996 27.245C7.59136 27.663 6.69102 27.872 5.78096 27.853C-0.640038 27.748 -0.356037 16.86 0.365963 12.847C1.08796 8.83397 4.84096 -0.253027 10.266 0.337973C10.291 0.337973 10.307 0.329972 10.323 0.329972C23.241 -1.26003 35.761 3.43397 48.66 3.03697C55.16 2.83697 61.607 2.05597 68.084 1.42297C73.443 0.903972 79.223 -0.125028 84.42 1.72297C84.6727 1.79892 84.895 1.95273 85.0552 2.16246C85.2154 2.3722 85.3052 2.62715 85.312 2.89097C85.855 10.791 89.738 17.97 89.779 25.972C89.811 33.772 88.733 41.61 88.117 49.385C86.901 64.602 83.488 80.913 88.546 95.652C90.703 95.368 93.484 94.93 95.332 96.017C97.124 97.063 98.251 100.099 99.175 101.846ZM97.497 106.321C96.7942 106.32 96.0923 106.269 95.397 106.167C94.651 106.045 94.367 105.883 94.367 105.721C94.367 105.559 94.651 105.405 95.413 105.299C95.883 105.218 96.556 105.218 97.432 105.162C97.3641 104.682 97.2527 104.21 97.099 103.751C94.067 103.694 93.013 103.451 93.013 103.151C93.013 102.867 93.962 102.632 96.629 102.567C96.467 102.219 96.297 101.867 96.11 101.522C93.362 101.611 92.77 101.416 92.746 101.122C92.722 100.855 93.246 100.587 95.486 100.385C95.3 100.06 95.1136 99.7263 94.927 99.385C93.403 96.572 87.906 98.145 85.441 98.526C79.041 99.515 72.381 100.739 65.903 100.545C52.632 100.145 39.503 97.691 26.219 97.804C27.5183 99.0044 28.4349 100.561 28.854 102.28C29.1872 103.92 29.2665 105.601 29.089 107.265C30.167 107.371 30.989 107.365 31.521 107.465C32.221 107.565 32.486 107.716 32.486 107.878C32.486 108.04 32.218 108.203 31.537 108.324C30.6723 108.469 29.794 108.515 28.919 108.462C28.87 108.754 28.813 109.054 28.74 109.354C29.0747 109.446 29.4004 109.568 29.713 109.719C30.159 109.954 30.37 110.148 30.321 110.311C30.272 110.474 29.989 110.57 29.494 110.554C29.1491 110.541 28.8054 110.505 28.465 110.448C27.821 112.676 26.7699 114.765 25.365 116.61C25.276 116.715 25.187 116.821 25.097 116.934C38.174 116.375 51.145 114.38 64.279 114.607C71.47 114.729 78.679 115.126 85.852 115.718C87.773 115.872 92.281 116.95 93.781 115.305C95.64 113.15 96.8761 110.529 97.356 107.724C97.4408 107.261 97.4879 106.792 97.497 106.321ZM86.114 44.721C86.814 38.021 87.736 31.191 87.298 24.559C86.8579 20.4503 86.005 16.3965 84.752 12.459C84.274 12.475 83.844 12.484 83.471 12.484C82.9801 12.4704 82.4903 12.4297 82.004 12.362C81.266 12.257 80.991 12.111 80.991 11.94C80.991 11.769 81.266 11.616 81.991 11.503C82.356 11.446 82.826 11.397 83.434 11.357C83.734 11.332 84.066 11.3 84.434 11.276C84.28 10.708 84.134 10.141 83.996 9.56497C80.235 9.51597 78.824 9.26497 78.824 8.96497C78.824 8.66497 80.162 8.42997 83.724 8.37297C83.624 7.95997 83.545 7.55397 83.464 7.14097C79.695 7.12497 78.292 6.86497 78.292 6.53297C78.292 6.21697 79.638 5.95697 83.245 5.92497C83.132 5.22497 83.045 4.52497 82.97 3.80897C77.376 2.16297 70.72 3.56597 65.07 4.15797C59.1213 4.91863 53.1366 5.36425 47.141 5.49297C36.041 5.47697 25.198 2.07197 14.123 2.47697C14.9685 3.49413 15.6224 4.65629 16.053 5.90697C16.2589 5.86207 16.4673 5.82869 16.677 5.80697L18.023 5.78297C18.6413 5.80557 19.2581 5.85964 19.871 5.94497C20.779 6.07497 21.136 6.23697 21.136 6.40697C21.136 6.57697 20.779 6.71497 19.847 6.80697C19.385 6.85597 18.785 6.87997 18.023 6.90697C17.658 6.93897 17.245 6.96297 16.791 6.99597L16.426 7.06897C16.564 7.54697 16.677 8.02597 16.774 8.49597C17.034 8.52797 17.285 8.56097 17.504 8.59597C18.039 8.66097 18.453 8.70997 18.769 8.78197C19.401 8.91997 19.644 9.08197 19.644 9.25297C19.644 9.42397 19.401 9.56097 18.744 9.64197C18.3055 9.69265 17.8644 9.71703 17.423 9.71497C17.277 9.71497 17.123 9.70697 16.969 9.69897C17.0503 10.2256 17.117 10.759 17.169 11.299C17.4452 11.3407 17.7184 11.4002 17.987 11.477C18.401 11.615 18.571 11.777 18.571 11.947C18.571 12.117 18.401 12.255 17.947 12.347C17.7211 12.3773 17.4938 12.396 17.266 12.403C17.509 16.173 17.233 20.186 17.314 23.786C17.5586 31.9868 17.3098 40.195 16.569 48.366C19.422 48.407 20.33 48.666 20.33 48.974C20.33 49.282 19.398 49.542 16.455 49.574C16.423 49.899 16.398 50.223 16.355 50.547C16.66 50.5794 16.9631 50.6281 17.263 50.693C17.717 50.815 17.895 50.969 17.895 51.131C17.895 51.293 17.717 51.455 17.255 51.561C16.9476 51.6245 16.6356 51.6623 16.322 51.674H16.209C16.152 52.174 16.079 52.679 16.009 53.19C16.0146 53.1883 16.0206 53.1882 16.0263 53.1898C16.0319 53.1914 16.037 53.1946 16.041 53.199C16.315 53.2609 16.5828 53.348 16.841 53.459C17.241 53.629 17.376 53.807 17.352 53.969C17.328 54.131 17.152 54.261 16.703 54.31C16.4248 54.327 16.1458 54.3243 15.868 54.302C15.625 56.012 15.358 57.731 15.05 59.45C13.35 68.773 11.726 78.226 11.434 87.727C12.65 87.816 12.893 88.035 12.893 88.295C12.893 88.555 12.65 88.773 11.41 88.862C11.401 89.324 11.393 89.795 11.393 90.262C12.5166 90.2339 13.6409 90.2827 14.758 90.408C15.758 90.529 16.136 90.691 16.136 90.854C16.136 91.017 15.755 91.17 14.75 91.275C14.004 91.364 12.901 91.356 11.393 91.454C11.401 91.818 11.401 92.183 11.41 92.548C11.718 92.516 12.026 92.483 12.31 92.459C12.975 92.434 13.575 92.402 14.11 92.378C15.172 92.345 15.999 92.321 16.64 92.297C17.896 92.232 18.399 92.313 18.431 92.475C18.463 92.637 18.01 92.864 16.737 93.156C16.096 93.302 15.261 93.383 14.183 93.505C13.648 93.545 13.056 93.594 12.4 93.651C12.1 93.691 11.775 93.724 11.443 93.764C11.451 93.951 11.451 94.145 11.459 94.34C11.6042 97.8041 11.9656 101.256 12.541 104.675C13.173 108.461 13.911 113.439 16.651 116.375C17.2006 117.093 18.0053 117.573 18.8987 117.715C19.7921 117.857 20.7059 117.65 21.451 117.137C22.707 116.291 23.7549 115.171 24.516 113.862C23.016 114.062 21.492 113.962 19.984 114.097C19.7506 114.124 19.5148 114.076 19.311 113.959C18.8163 113.898 18.3392 113.738 17.9086 113.487C17.478 113.236 17.1028 112.9 16.806 112.5C13.498 108.592 16.076 100.363 19.36 97.266C21.938 94.85 26.186 95.329 29.396 95.418C33.458 95.531 37.519 95.872 41.565 96.269C49.656 97.064 57.739 98.118 65.878 98.077C68.9654 98.0748 72.0496 97.8771 75.112 97.485C78.768 97.007 82.425 96.431 86.089 95.969C85.757 94.98 85.457 93.983 85.197 92.978C84.881 92.945 84.581 92.921 84.289 92.897C83.657 92.88 83.089 92.864 82.589 92.856C81.543 92.824 80.74 92.807 80.108 92.718C78.859 92.548 78.408 92.378 78.422 92.207C78.436 92.036 78.922 91.907 80.132 91.859C80.74 91.835 81.543 91.759 82.573 91.729L84.324 91.705C84.51 91.713 84.705 91.729 84.899 91.745C84.81 91.381 84.729 91.008 84.656 90.645C81.156 90.588 80.319 90.345 80.319 90.045C80.319 89.761 81.119 89.518 84.419 89.453C84.319 88.934 84.241 88.415 84.16 87.897C83.9913 87.8794 83.8242 87.8493 83.66 87.807C83.4661 87.8002 83.2733 87.7758 83.084 87.734C82.784 87.645 82.638 87.507 82.606 87.345C82.574 87.183 82.663 87.021 82.987 86.875C83.204 86.7809 83.4333 86.7183 83.668 86.689C83.757 86.689 83.868 86.689 83.976 86.697C82.46 75.055 84.511 62.91 85.525 51.212C84.6097 51.1644 83.702 51.0203 82.817 50.782C82.047 50.547 81.771 50.353 81.795 50.19C81.819 50.027 82.144 49.915 82.947 49.923C83.547 49.907 84.422 50.023 85.622 50.023C85.646 49.812 85.662 49.602 85.679 49.391L85.727 48.759C82.679 48.71 81.527 48.459 81.527 48.167C81.527 47.875 82.71 47.615 85.832 47.567C85.88 47.015 85.932 46.472 85.986 45.921C83.635 45.872 83.01 45.621 83.01 45.329C83.01 45.037 83.666 44.772 86.114 44.723V44.721ZM26.641 103.492C26.5755 103.103 26.4778 102.721 26.349 102.348C25.838 100.857 24.387 98.319 22.449 98.489C20.382 98.668 19.239 101.205 18.72 102.924C18.1441 104.611 17.8696 106.387 17.909 108.169C17.926 108.453 18.436 113.569 20.415 111.12C21.0536 110.395 21.4335 109.479 21.495 108.515C21.5566 107.551 21.2963 106.594 20.755 105.794C20.6039 105.537 20.5576 105.232 20.6255 104.942C20.6935 104.652 20.8706 104.4 21.12 104.237C21.2111 104.025 21.3647 103.847 21.5603 103.725C21.7558 103.603 21.9839 103.544 22.214 103.556C23.568 103.556 25.125 103.548 26.641 103.492ZM25.814 111.145C26.4309 109.468 26.7729 107.702 26.827 105.916C25.765 105.956 24.436 105.972 23.479 105.98C23.8157 106.878 23.965 107.836 23.9175 108.794C23.8701 109.752 23.6269 110.69 23.203 111.55C23.9275 111.522 24.6457 111.405 25.341 111.199C25.4939 111.152 25.6543 111.133 25.814 111.145ZM14.885 24.05C14.877 23.961 14.877 23.872 14.877 23.783C14.796 20.937 14.626 18.1 14.602 15.262C13.9449 15.1593 13.279 15.1258 12.615 15.162C12.6945 15.361 12.7544 15.5673 12.794 15.778C13.2325 18.6864 12.7174 21.6586 11.326 24.25C12.4943 23.9955 13.6955 23.928 14.885 24.05ZM14.61 12.822C14.626 10.041 14.488 7.08997 12.794 4.76297C8.85396 -0.637028 4.15196 7.84397 3.17096 11.452C2.22196 14.946 1.53296 20.491 3.72196 23.669C5.88696 26.815 8.37496 24.52 9.59196 22.121C8.16496 22.137 5.51396 22.291 4.65396 20.921C3.82696 19.621 4.34596 17.8 4.85396 16.47C5.17503 15.6035 5.7102 14.8323 6.40962 14.2284C7.10903 13.6244 7.94992 13.2074 8.85396 13.016C9.29937 12.9093 9.76402 12.9124 10.208 13.025C11.6566 12.7348 13.1408 12.6663 14.61 12.822ZM10.597 17.678C10.743 15.424 9.5053 15.4753 6.88396 17.832C6.83496 18.375 6.77796 18.91 6.72996 19.445C7.93737 19.7115 9.17895 19.7881 10.41 19.672C10.561 19.0186 10.6239 18.348 10.597 17.678Z" fill="#FFF3FA"/>
</svg>
