<svg width="114" height="85" viewBox="0 0 114 85" fill="none" xmlns="http://www.w3.org/2000/svg">
<path d="M14.0435 9.40462L3.0118 25.0271C2.98272 25.0683 2.9855 25.1178 2.97292 25.1644C2.9654 25.1911 2.9389 25.2077 2.93673 25.236L1.00145 49.9109C0.989906 50.049 1.04765 50.1823 1.15572 50.2711L33.6454 76.6535C33.6527 76.6594 33.6632 76.6596 33.6708 76.6651C33.6925 76.6804 33.7162 76.6861 33.7402 76.6971C33.7722 76.7117 33.8005 76.7341 33.8352 76.7407L73.2369 83.9934C73.2516 83.9962 73.2661 83.9962 73.2807 83.9972L73.2831 83.9984C73.2931 83.9999 73.3023 83.9999 73.3123 83.9999L73.3145 84C73.4338 84 73.5354 83.944 73.613 83.8622C73.619 83.856 73.6297 83.8586 73.6354 83.8519L112.899 37.9485C112.965 37.8728 113 37.7758 113 37.6754V25.4071C113 25.4029 112.996 25.4004 112.995 25.3962C112.995 25.3891 113 25.3829 112.999 25.3758C112.992 25.2844 112.947 25.2058 112.888 25.1377C112.873 25.1209 112.86 25.11 112.843 25.0957C112.821 25.0768 112.806 25.0513 112.78 25.037L90.7282 13.0442L68.6767 1.05136C68.5959 1.00695 68.4969 0.990499 68.4111 1.0053L14.3257 9.23026C14.2118 9.2467 14.1104 9.31086 14.0435 9.40462ZM1.8602 49.7562L3.70206 26.2715L18.4828 42.4557L32.8171 74.8936L1.8602 49.7562ZM72.9263 83.0787L34.2084 75.9522L19.5546 42.791L75.0773 53.5932L72.9263 83.0787ZM112.155 37.5208L73.8288 82.3267L75.9338 53.472L112.155 26.2511V37.5208ZM68.3971 1.85905L111.801 25.4647L75.4221 52.8028L19.0599 41.8373L3.89777 25.2344L14.6309 10.0363L68.3971 1.85905Z" fill="#FFF3FA" stroke="#FFF3FA"/>
</svg>
