<svg width="86" height="116" viewBox="0 0 86 116" fill="none" xmlns="http://www.w3.org/2000/svg">
<path d="M6.43603 0.0314253C6.23447 0.0629516 6.04269 0.140045 5.87522 0.25687C5.70775 0.373695 5.56898 0.52719 5.4694 0.705739C-1.56499 13.7291 -2.14898 30.1227 5.67954 43.9461C11.8722 54.8809 22.0133 62.0479 33.2076 64.7234C33.3841 64.7821 33.5709 64.8033 33.756 64.7859C33.9412 64.7685 34.1207 64.7128 34.2833 64.6223C34.4459 64.5318 34.588 64.4085 34.7007 64.2601C34.8133 64.1117 34.8941 63.9415 34.9378 63.7602C34.9815 63.579 34.9873 63.3906 34.9548 63.207C34.9222 63.0234 34.852 62.8485 34.7487 62.6935C34.6453 62.5384 34.511 62.4066 34.3543 62.3062C34.1975 62.2059 34.0217 62.1392 33.838 62.1104C23.3462 59.6029 13.8547 52.8771 8.03308 42.5975C1.15308 30.449 1.40325 16.3118 6.85631 4.49875C13.2977 15.9067 27.9936 42.312 41.445 66.4513C38.7046 71.3753 35.8422 76.5346 33.2916 81.1177L20.3051 73.7424C20.1509 73.6524 19.9805 73.5941 19.8036 73.5709C19.6267 73.5477 19.447 73.5599 19.2749 73.607C19.1028 73.654 18.9418 73.735 18.8012 73.845C18.6606 73.9551 18.5432 74.0921 18.4559 74.2481L0.17393 105.899C0.0858733 106.056 0.0301239 106.229 0.00997506 106.408C-0.0101738 106.587 0.00568631 106.769 0.0566199 106.942C0.107553 107.114 0.192527 107.275 0.306518 107.415C0.420508 107.554 0.561202 107.669 0.720288 107.753L15.514 115.845C15.8266 116.01 16.1914 116.045 16.5295 115.942C16.8677 115.84 17.152 115.608 17.3212 115.297C17.3212 115.297 29.3772 93.6832 43 69.2329C56.6228 93.6832 68.6788 115.297 68.6788 115.297C68.848 115.608 69.1323 115.84 69.4705 115.942C69.8086 116.045 70.1734 116.01 70.486 115.845L85.2797 107.753C85.4388 107.669 85.5795 107.554 85.6935 107.415C85.8075 107.275 85.8924 107.114 85.9434 106.942C85.9943 106.769 86.0102 106.587 85.99 106.408C85.9699 106.229 85.9141 106.056 85.8261 105.899L67.5441 74.2481C67.4568 74.0921 67.3394 73.9551 67.1988 73.845C67.0582 73.735 66.8972 73.654 66.7251 73.607C66.553 73.5599 66.3733 73.5477 66.1964 73.5709C66.0195 73.5941 65.8491 73.6524 65.6949 73.7424L52.7084 81.1177C50.1578 76.5346 47.2954 71.3753 44.555 66.4513C58.0064 42.312 72.7023 15.9067 79.1437 4.49875C84.5968 16.3118 84.8469 30.449 77.9669 42.5975C72.1453 52.8771 62.6538 59.6029 52.162 62.1104C51.9783 62.1392 51.8025 62.2059 51.6457 62.3062C51.489 62.4066 51.3547 62.5384 51.2513 62.6935C51.148 62.8485 51.0778 63.0234 51.0452 63.207C51.0127 63.3906 51.0185 63.579 51.0622 63.7602C51.1059 63.9415 51.1867 64.1117 51.2993 64.2601C51.412 64.4085 51.5541 64.5318 51.7167 64.6223C51.8793 64.7128 52.0588 64.7685 52.244 64.7859C52.4291 64.8033 52.6159 64.7821 52.7924 64.7234C63.9867 62.0479 74.1278 54.8809 80.3205 43.9461C88.149 30.1227 87.565 13.7291 80.5306 0.705739C80.3915 0.448574 80.1728 0.24373 79.9075 0.122098C79.6421 0.00046666 79.3446 -0.0313573 79.0596 0.0314253C78.8732 0.0744037 78.698 0.156785 78.5458 0.273067C78.3936 0.38935 78.2679 0.536858 78.1771 0.705739C71.3367 12.7843 56.7093 39.0383 43 63.6698C29.2907 39.0383 14.6633 12.7843 7.82294 0.705739C7.68855 0.464357 7.48343 0.270218 7.23536 0.149607C6.9873 0.0289966 6.70826 -0.0122593 6.43603 0.0314253ZM20.137 76.7768L31.9888 83.4778C26.5409 93.2677 15.9154 112.315 15.6401 112.81L3.24194 106.025L20.137 76.7768ZM65.863 76.7768L82.7581 106.025L70.3599 112.81C70.0846 112.315 59.4591 93.2677 54.0112 83.4778L65.863 76.7768Z" fill="#FFF3FA"/>
</svg>
